<svg width="115" height="15" viewBox="0 0 115 15" fill="none" xmlns="http://www.w3.org/2000/svg">
<g clip-path="url(#clip0_2039_1025)">
<path d="M8.6999 10.5381V12.4228H3.34771C2.8197 12.4228 2.32275 12.3023 1.87052 12.0762C1.20709 11.7445 0.664165 11.2015 0.347357 10.5381C0.121244 10.0859 0.000732422 9.58892 0.000732422 9.06091V1.87H1.88543V9.2423C1.97612 9.90573 2.50413 10.4337 3.16633 10.5244L8.6999 10.5393V10.5381Z" fill="white"/>
<path d="M20.3838 12.4226H18.273L17.3077 10.5379L15.0006 6.0144L12.6935 10.5379L11.7281 12.4226H9.61731L10.5826 10.5379L15.0018 1.86981L19.4197 10.5392L20.385 12.4239L20.3838 12.4226Z" fill="white"/>
<path d="M31.8883 10.523V12.4077H23.732L23.7171 12.4226H21.3355L21.3504 12.4077L22.7978 10.523L25.3906 7.16108L26.5821 5.62301L28.0294 3.75323H21.3206V1.86853H31.8435L30.3813 3.75323L27.7573 7.16108L26.5659 8.69916L25.1483 10.523H31.887H31.8883Z" fill="white"/>
<path d="M32.7489 12.4151H32.7787L32.7489 12.445V12.4151ZM43.3029 1.84619L39.2167 7.1375L38.9906 7.42449V12.4002H37.1059V7.45555L36.85 7.13875L32.7638 1.84743H35.1455L38.0402 5.60192L40.935 1.84743H43.3017L43.3029 1.84619ZM43.288 12.4151H43.3029V12.445L43.288 12.4151Z" fill="white"/>
<path d="M44.9621 7.14621C44.9621 9.016 46.4853 10.5379 48.3538 10.5379H53.6302V12.4226H48.3538C45.4441 12.4226 43.0774 10.0559 43.0774 7.14621C43.0774 4.23655 45.4441 1.86981 48.3538 1.86981H53.6302V3.75451H48.3538C46.484 3.75451 44.9621 5.27767 44.9621 7.14621Z" fill="white"/>
<path d="M75.1498 1.88496C78.0595 1.88496 80.4262 4.2368 80.4262 7.14646C80.4262 8.44351 79.9591 9.63371 79.1751 10.5543C79.0844 10.6599 78.9788 10.7655 78.8732 10.8711C77.924 11.8365 76.6121 12.4241 75.1647 12.4241H69.8883V1.87006L75.1498 1.88496ZM71.7581 10.5543H75.1498C77.0196 10.5543 78.5415 9.03116 78.5415 7.16261C78.5415 5.29407 77.0183 3.7709 75.1498 3.7709H71.7581V10.5556V10.5543Z" fill="white"/>
<path d="M83.8355 4.71859V5.69883H90.6201V7.58353H83.8355V9.57382C83.8355 10.1018 84.2728 10.5392 84.8008 10.5392H92.5048V12.4239H84.8008C83.2329 12.4239 81.9669 11.143 81.9669 9.57382V4.71859C81.9669 3.1507 83.2329 1.86856 84.8008 1.86856H92.5048V3.75326H84.8008C84.2728 3.75326 83.8355 4.19058 83.8355 4.71859Z" fill="white"/>
<path d="M102.53 10.5379L103.496 12.4226H101.385L100.42 10.5379L99.4096 8.5625L99.3649 8.47181C99.0332 7.92889 98.4455 7.56735 97.7672 7.56735H95.8825V12.4226H93.9978V1.86978H100.662C101.446 1.86978 102.154 2.18659 102.667 2.69845C103.18 3.22646 103.497 3.93462 103.497 4.71857C103.497 5.86404 102.819 6.85919 101.838 7.31142C101.583 7.43193 101.31 7.50772 101.025 7.53753L102.533 10.5379H102.53ZM100.662 5.6839C100.797 5.6839 100.933 5.65408 101.055 5.5932C101.401 5.44288 101.627 5.09501 101.627 4.71857C101.627 4.37194 101.446 4.13092 101.34 4.02532C101.22 3.90481 100.994 3.75448 100.662 3.75448H95.8825V5.69881L100.662 5.6839Z" fill="white"/>
<path d="M113.115 4.79435V4.73348C113.115 4.20546 112.678 3.76814 112.15 3.76814H107.869C107.341 3.76814 106.904 4.20546 106.904 4.73348V4.79435C106.904 5.32237 107.341 5.75968 107.869 5.75968H111.668C112.648 5.75968 113.523 6.1821 114.126 6.84553C114.172 6.89025 114.201 6.93622 114.246 6.98095C114.713 7.55369 115 8.29291 115 9.09176C115 10.9305 113.508 12.4238 111.668 12.4238H108.367C106.527 12.4238 105.035 10.9317 105.035 9.09176H106.92C106.92 9.89061 107.568 10.5391 108.367 10.5391H111.668C112.467 10.5391 113.13 9.89061 113.13 9.09176C113.13 8.29291 112.467 7.64438 111.668 7.64438H107.869C107.1 7.64438 106.407 7.34248 105.894 6.84553C105.758 6.71011 105.638 6.55854 105.532 6.3933C105.215 5.94107 105.035 5.38324 105.035 4.78069V4.71981C105.035 3.15192 106.301 1.86978 107.869 1.86978H112.15C113.718 1.86978 115 3.15068 115 4.71981V4.78069L113.115 4.79559V4.79435Z" fill="white"/>
<path d="M65.0567 3.74697C65.4977 3.41028 66.0817 3.32331 66.6383 3.39786C67.0135 3.4488 67.3787 3.57303 67.6794 3.74448C68.0024 3.92836 68.2583 4.1731 68.3888 4.44891C68.4981 4.68124 68.5217 4.93096 68.4298 5.1844L68.4248 5.19931C68.272 5.56582 68.031 5.89381 67.703 6.1808C67.3899 6.45536 66.9961 6.6939 66.5215 6.89517C66.2332 7.02438 65.9723 7.20452 65.7524 7.42442C65.5574 7.62072 65.3934 7.84683 65.2691 8.09779C65.34 8.49908 65.3375 8.90659 65.2629 9.30166C65.1822 9.73277 65.0157 10.1502 64.7672 10.5254C64.52 10.9006 64.2032 11.2187 63.8379 11.4647C63.4714 11.7106 63.0577 11.8846 62.6179 11.9715L62.2713 12.0399L62.2104 11.6895C62.1172 11.1541 62.1557 10.6111 62.3135 10.1055C62.3334 10.0421 62.3545 9.98001 62.3769 9.91913C61.6414 10.2421 60.8649 10.4484 60.0747 10.5341C59.7144 10.5739 59.3517 10.5875 58.9877 10.5763C58.61 11.1715 58.072 11.6249 57.4533 11.9007C56.7725 12.2051 55.9948 12.2933 55.2294 12.1169L54.9524 12.0535L54.9611 11.7703C54.9723 11.4025 55.0928 11.0584 55.2965 10.7739C55.5003 10.4894 55.7873 10.2645 56.1314 10.1365C55.8954 10.5304 55.6891 10.8832 55.7015 11.497C56.2122 11.5553 56.7178 11.4721 57.1713 11.2696C57.5552 11.0982 57.9018 10.8397 58.1801 10.5105C57.2272 10.3813 56.288 10.0757 55.4133 9.58741L55.094 9.40975L55.2878 9.10164C56.1712 7.69775 57.303 6.67651 58.4957 6.06277C59.3591 5.618 60.2574 5.38691 61.1196 5.37822C61.993 5.36952 62.8291 5.58818 63.5559 6.04662C64.0678 6.36964 64.525 6.8082 64.9002 7.36852C65.0082 7.2157 65.1275 7.07283 65.2592 6.93989C65.5387 6.66036 65.8692 6.43052 66.237 6.26652L66.2432 6.26404C66.6507 6.09134 66.9836 5.89132 67.2445 5.66397C67.4893 5.44903 67.6682 5.20801 67.7812 4.9409C67.8011 4.87754 67.7912 4.81169 67.7614 4.74709C67.6943 4.60421 67.539 4.46506 67.334 4.34828C67.1066 4.21783 66.8296 4.12341 66.5451 4.0849C66.1537 4.03147 65.7549 4.0849 65.4741 4.29859C65.453 4.31598 65.4319 4.33461 65.4108 4.35201C65.4294 4.40295 65.4456 4.45388 65.4592 4.50606C65.5375 4.80672 65.5276 5.11732 65.3996 5.40928C65.2617 5.72236 64.9921 6.00065 64.5535 6.20192C64.643 5.74845 64.8716 5.39064 64.8045 4.7446C64.7946 4.64024 64.7921 4.50855 64.8169 4.35822C64.8616 4.07868 64.9101 3.89605 65.0567 3.74821V3.74697ZM64.5771 8.17234C64.2169 7.48903 63.7398 6.97716 63.1894 6.63054C62.5769 6.2454 61.87 6.06029 61.127 6.06774C60.3742 6.07519 59.5828 6.28143 58.8137 6.67651C57.8148 7.19085 56.8595 8.02325 56.0805 9.1563C57.3191 9.76632 58.6808 9.98994 60.0014 9.84707C62.321 9.59487 63.4329 8.58854 64.4256 8.60593C64.1609 8.84074 63.8839 9.05567 63.5957 9.24948C63.3062 9.55511 63.0962 9.91913 62.9745 10.3105C62.8863 10.5937 62.8453 10.8919 62.8552 11.1926C63.0676 11.118 63.2689 11.0162 63.454 10.8919C63.7435 10.6969 63.9957 10.4447 64.1908 10.149C64.3858 9.85204 64.5187 9.52157 64.5834 9.17743C64.6455 8.84944 64.6442 8.50778 64.5784 8.17358L64.5771 8.17234Z" fill="#ED7D30"/>
<path d="M54.7386 7.14617C54.7386 5.20681 55.525 3.45132 56.7947 2.1816C58.0657 0.910644 59.8212 0.125458 61.7593 0.125458C62.5805 0.125458 63.3706 0.26709 64.1061 0.52799C64.8665 0.797587 65.5684 1.19515 66.1834 1.69583L65.7473 2.23254C65.1945 1.7828 64.5621 1.42499 63.8763 1.18148C63.2154 0.946673 62.5035 0.81995 61.7593 0.81995C60.0112 0.81995 58.4297 1.52811 57.2842 2.67359C56.1387 3.81906 55.4306 5.40062 55.4306 7.14865H54.7361L54.7386 7.14617ZM68.7812 7.14617C68.7812 9.08553 67.9948 10.841 66.7251 12.112C65.4541 13.3829 63.6986 14.1681 61.7593 14.1681C61.0909 14.1681 60.4424 14.0737 59.8286 13.8985C59.195 13.7171 58.5974 13.4488 58.0495 13.1084L58.416 12.5207C58.9092 12.8276 59.4472 13.0699 60.0187 13.2326C60.5716 13.3904 61.1555 13.4749 61.7605 13.4749C63.5086 13.4749 65.0901 12.7667 66.2356 11.6212C67.3811 10.4758 68.0892 8.8942 68.0892 7.14617H68.7825H68.7812Z" fill="#ED7D30" stroke="#EC7D2F" stroke-width="0.248477" stroke-miterlimit="10"/>
</g>
<defs>
<clipPath id="clip0_2039_1025">
<rect width="115" height="14.2924" fill="white"/>
</clipPath>
</defs>
</svg>
